<svg width="209" height="18" viewBox="0 0 209 18" fill="none" xmlns="http://www.w3.org/2000/svg">
<path d="M0 0H6.34773L10.7165 13.3924L14.3944 0H17.1949L21.4889 13.0886L25.0735 0H26.5111L21.5823 17.7215H15.9253L13.2182 9.41772L10.9032 17.7215H5.78763L0 0Z" fill="#A5324E"/>
<path d="M27.5107 0H33.5971V17.7215H27.5107V0Z" fill="#A5324E"/>
<path d="M34.5977 0H41.1508V16.2025H48.2453V17.7215H34.5977V0Z" fill="#A5324E"/>
<path d="M59.2335 6.50633C60.7146 7.04641 61.8223 7.76371 62.5567 8.65823C63.291 9.53586 63.6582 10.6835 63.6582 12.1013C63.6582 13.2321 63.3968 14.2447 62.8741 15.1392C62.3513 16.0338 61.5796 16.7342 60.559 17.2405C59.5508 17.7468 58.3249 18 56.8811 18C55.1759 18 53.6699 17.7046 52.363 17.1139C51.0685 16.5063 50.0541 15.7722 49.3198 14.9114L49.9359 13.7722C50.5831 14.4641 51.3984 15.0549 52.3816 15.5443C53.3649 16.0338 54.4229 16.2785 55.5555 16.2785C56.2899 16.2785 56.8437 16.135 57.2171 15.8481C57.603 15.5612 57.7959 15.1561 57.7959 14.6329C57.7959 13.7215 57.13 13.0127 55.7982 12.5063L53.3711 11.5443C52.0518 11.0042 51.0312 10.2532 50.3093 9.29114C49.5998 8.32911 49.2451 7.18987 49.2451 5.87342C49.2451 4.77637 49.5003 3.78059 50.0106 2.88608C50.5209 1.99156 51.2615 1.29114 52.2323 0.784811C53.2156 0.261603 54.3918 0 55.7609 0C57.0678 0 58.2688 0.202532 59.3641 0.607595C60.4719 1.01266 61.3743 1.50211 62.0713 2.07595L61.4552 3.24051C60.8702 2.78481 60.1669 2.39662 59.3455 2.07595C58.5364 1.75527 57.6839 1.59494 56.7877 1.59494C56.0036 1.59494 55.3999 1.76371 54.9767 2.10127C54.566 2.42194 54.3606 2.8692 54.3606 3.44304C54.3606 3.88186 54.5162 4.27004 54.8274 4.60759C55.1385 4.92827 55.7298 5.24894 56.601 5.56962L59.2335 6.50633Z" fill="#A5324E"/>
<path d="M69.587 0H75.0386L80.8262 17.7215H73.7691L71.8087 11.8481H67.7014L66.0211 17.7215H64.6582L69.587 0ZM71.286 10.3038L69.587 5.16456L68.1121 10.3038H71.286Z" fill="#A5324E"/>
<path d="M96.8145 6.50633C98.2957 7.04641 99.4034 7.76371 100.138 8.65823C100.872 9.53586 101.239 10.6835 101.239 12.1013C101.239 13.2321 100.978 14.2447 100.455 15.1392C99.9324 16.0338 99.1607 16.7342 98.1401 17.2405C97.1319 17.7468 95.9059 18 94.4621 18C92.7569 18 91.2509 17.7046 89.944 17.1139C88.6496 16.5063 87.6352 15.7722 86.9009 14.9114L87.517 13.7722C88.1642 14.4641 88.9794 15.0549 89.9627 15.5443C90.946 16.0338 92.0039 16.2785 93.1366 16.2785C93.8709 16.2785 94.4248 16.135 94.7982 15.8481C95.184 15.5612 95.3769 15.1561 95.3769 14.6329C95.3769 13.7215 94.7111 13.0127 93.3793 12.5063L90.9522 11.5443C89.6329 11.0042 88.6123 10.2532 87.8904 9.29114C87.1809 8.32911 86.8262 7.18987 86.8262 5.87342C86.8262 4.77637 87.0813 3.78059 87.5916 2.88608C88.1019 1.99156 88.8425 1.29114 89.8133 0.784811C90.7966 0.261603 91.9728 0 93.3419 0C94.6488 0 95.8499 0.202532 96.9452 0.607595C98.0529 1.01266 98.9553 1.50211 99.6523 2.07595L99.0362 3.24051C98.4512 2.78481 97.748 2.39662 96.9265 2.07595C96.1175 1.75527 95.2649 1.59494 94.3688 1.59494C93.5846 1.59494 92.981 1.76371 92.5578 2.10127C92.1471 2.42194 91.9417 2.8692 91.9417 3.44304C91.9417 3.88186 92.0973 4.27004 92.4084 4.60759C92.7196 4.92827 93.3108 5.24894 94.1821 5.56962L96.8145 6.50633Z" fill="#A5324E"/>
<path d="M107.168 0H112.62L118.407 17.7215H111.35L109.39 11.8481H105.282L103.602 17.7215H102.239L107.168 0ZM108.867 10.3038L107.168 5.16456L105.693 10.3038H108.867Z" fill="#A5324E"/>
<path d="M119.407 0H124.896L130.348 8.86076V0H131.468V17.7215H127.081L120.546 5.92405V17.7215H119.407V0Z" fill="#A5324E"/>
<path d="M137.378 1.49367H132.468V0H148.841V1.49367H143.912V17.7215H137.378V1.49367Z" fill="#A5324E"/>
<path d="M149.842 0H155.928V17.7215H149.842V0Z" fill="#A5324E"/>
<path d="M161.857 0H167.308L173.096 17.7215H166.039L164.078 11.8481H159.971L158.291 17.7215H156.928L161.857 0ZM163.556 10.3038L161.857 5.16456L160.382 10.3038H163.556Z" fill="#A5324E"/>
<path d="M174.096 8.98734C174.096 6 174.637 3.78059 175.72 2.32911C176.417 1.38397 177.195 0.759494 178.054 0.455696C178.913 0.151899 180.039 0 181.433 0C182.727 0 183.767 0.126582 184.551 0.379746C185.347 0.616033 186.001 1.1308 186.511 1.92405C186.934 2.58228 187.264 3.38397 187.501 4.32911C187.75 5.25738 187.893 6.16878 187.93 7.06329H186.866C186.816 6.3038 186.679 5.52743 186.455 4.73418C186.244 3.92405 185.907 3.23207 185.447 2.65823C184.986 2.06751 184.401 1.77215 183.692 1.77215C183.032 1.77215 182.485 2.16878 182.049 2.96202C181.676 3.65401 181.408 4.57384 181.246 5.72152C181.097 6.73418 181.022 7.82278 181.022 8.98734C181.022 10.8945 181.196 12.4895 181.545 13.7722C182.005 15.4093 182.721 16.2278 183.692 16.2278V9.21519H189.405V17.8734C187.613 17.8734 185.584 17.9072 183.319 17.9747L181.433 18C180.064 18 178.95 17.8228 178.091 17.4684C177.245 17.097 176.517 16.4979 175.907 15.6709C174.699 14.0338 174.096 11.8059 174.096 8.98734Z" fill="#A5324E"/>
<path d="M199.273 18C197.606 18 196.1 17.654 194.755 16.962C193.411 16.27 192.347 15.2489 191.563 13.8987C190.791 12.5316 190.405 10.8945 190.405 8.98734C190.405 7.09705 190.797 5.47679 191.581 4.12658C192.366 2.77637 193.424 1.75527 194.755 1.06329C196.1 0.35443 197.606 0 199.273 0C200.929 0 202.422 0.35443 203.754 1.06329C205.098 1.75527 206.156 2.77637 206.928 4.12658C207.712 5.47679 208.104 7.09705 208.104 8.98734C208.104 10.8945 207.712 12.5316 206.928 13.8987C206.156 15.2489 205.098 16.27 203.754 16.962C202.422 17.654 200.929 18 199.273 18ZM199.273 16.5063C199.796 16.5063 200.182 16.1857 200.431 15.5443C200.643 15.0549 200.786 14.1857 200.86 12.9367C200.898 12.2785 200.916 10.962 200.916 8.98734C200.916 6.99578 200.885 5.5865 200.823 4.75949C200.786 3.74684 200.649 2.9789 200.412 2.4557C200.163 1.81435 199.784 1.49367 199.273 1.49367C198.751 1.49367 198.359 1.81435 198.097 2.4557C197.886 2.96202 197.749 3.72996 197.687 4.75949C197.637 5.63713 197.612 7.04641 197.612 8.98734C197.612 11.1814 197.63 12.4979 197.668 12.9367C197.718 14.1013 197.855 14.9705 198.079 15.5443C198.34 16.1857 198.738 16.5063 199.273 16.5063Z" fill="#A5324E"/>
</svg>
