<svg width="40" height="40" viewBox="0 0 40 40" fill="none" xmlns="http://www.w3.org/2000/svg">
<mask id="mask0_1389_4833" style="mask-type:alpha" maskUnits="userSpaceOnUse" x="0" y="0" width="40" height="40">
<rect width="40" height="40" fill="#D9D9D9"/>
</mask>
<g mask="url(#mask0_1389_4833)">
<path d="M20.2886 35.8032C18.4083 35.5752 16.5408 35.0748 14.6861 34.302C12.8313 33.5292 11.1647 32.4127 9.68606 30.9524C8.20744 29.4918 6.99536 27.6441 6.0498 25.4091C5.10453 23.1741 4.59439 20.485 4.51939 17.342L4.4873 15.8353L5.96189 15.8674C7.25022 15.8993 8.66842 16.136 10.2165 16.5774C11.7645 17.0185 13.1433 17.6216 14.3527 18.3866C14.5899 16.1474 15.2267 13.8216 16.2631 11.4091C17.2995 8.99684 18.5452 6.93601 20.0002 5.22656C21.4552 6.93601 22.7009 9.00226 23.7373 11.4253C24.7737 13.8484 25.4105 16.1795 25.6477 18.4186C26.8249 17.6859 28.1769 17.0855 29.7036 16.6174C31.2302 16.1493 32.6645 15.8993 34.0065 15.8674L35.5131 15.8353L35.4811 17.3736C35.4383 20.2178 35.0162 22.7013 34.2148 24.8241C33.4137 26.9468 32.3326 28.7492 30.9715 30.2311C29.6104 31.7128 28.0195 32.9067 26.199 33.8128C24.3784 34.7186 22.4083 35.3821 20.2886 35.8032ZM20.2373 33.252C19.9317 28.6409 18.5637 25.1548 16.1331 22.7936C13.7026 20.4325 10.6817 18.9742 7.07064 18.4186C7.37619 23.1686 8.78592 26.7103 11.2998 29.0436C13.8137 31.377 16.7929 32.7798 20.2373 33.252ZM20.0002 23.7586C20.3955 23.1048 20.8891 22.4246 21.4811 21.7182C22.073 21.0121 22.6627 20.4123 23.2502 19.9186C23.2161 18.2711 22.9143 16.5516 22.3448 14.7599C21.7754 12.9682 20.9938 11.237 20.0002 9.56614C19.0066 11.237 18.2251 12.9682 17.6556 14.7599C17.0862 16.5516 16.7844 18.2711 16.7502 19.9186C17.3377 20.4123 17.9291 21.0121 18.5244 21.7182C19.1194 22.4246 19.6113 23.1048 20.0002 23.7586ZM22.7373 32.5982C23.904 32.2113 25.0642 31.6771 26.2181 30.9957C27.372 30.3141 28.4255 29.4166 29.3786 28.3032C30.3313 27.1899 31.1294 25.8245 31.7727 24.207C32.4158 22.5895 32.8015 20.66 32.9298 18.4186C30.2759 18.8075 27.9308 19.7156 25.8944 21.1428C23.858 22.5703 22.3441 24.3524 21.3527 26.4891C21.6861 27.378 21.9655 28.3128 22.1911 29.2936C22.4163 30.2745 22.5984 31.376 22.7373 32.5982Z" fill="#A5324E"/>
</g>
</svg>
